<svg version="1.1" id="Layer_1" xmlns="http://www.w3.org/2000/svg" xmlns:xlink="http://www.w3.org/1999/xlink" x="0px" y="0px"
	 width="100%" viewBox="0 130 460 400" enable-background="new 0 0 500 500" xml:space="preserve">
<path fill="#FFFFFF" opacity="1.000000" stroke="none" 
	d="
M285.000000,501.000000 
	C190.000015,501.000000 95.500046,501.000000 1.000051,501.000000 
	C1.000034,334.333405 1.000034,167.666794 1.000017,1.000140 
	C167.666565,1.000093 334.333130,1.000093 500.999756,1.000047 
	C500.999847,167.666519 500.999847,334.333038 500.999939,500.999786 
	C429.166656,501.000000 357.333344,501.000000 285.000000,501.000000 
M398.896149,239.913849 
	C398.896149,239.913849 399.258423,240.221619 399.163727,240.968216 
	C398.101440,244.110870 396.490967,247.203812 396.199615,250.416367 
	C396.045410,252.116974 398.185181,254.025620 399.289276,255.840347 
	C400.466553,254.741730 402.139862,253.865234 402.746368,252.511002 
	C411.167999,233.706253 419.423737,214.827271 427.773865,195.990326 
	C429.189056,192.797821 430.874359,189.725815 432.402588,186.582458 
	C433.791901,183.724854 432.662262,181.388031 430.024078,180.579300 
	C428.944641,180.248383 426.565643,181.890274 425.790070,183.223526 
	C422.279510,189.258469 419.402649,195.668625 415.787384,201.634491 
	C410.473877,210.402756 404.726105,218.907822 399.040161,227.715820 
	C392.036621,223.283035 387.417297,226.001572 382.868500,230.540344 
	C377.706482,235.690979 371.461334,239.165146 363.146454,241.490555 
	C364.533478,238.216476 365.292419,236.081161 366.318970,234.083374 
	C367.812561,231.176590 369.742462,228.131607 365.621124,226.008133 
	C361.094238,223.675735 361.320618,228.654495 359.527344,230.481308 
	C358.968384,231.050720 358.771454,231.958221 358.320282,232.653534 
	C355.527679,236.957428 351.376038,239.301056 345.991791,241.702774 
	C346.858276,238.105576 347.904327,235.580551 347.945007,233.039413 
	C347.979797,230.867218 346.861053,228.676559 346.252533,226.494080 
	C344.249176,227.179337 341.908539,227.418335 340.304016,228.631210 
	C334.896149,232.719040 329.749939,237.153061 324.092865,241.077759 
	C323.952515,240.955963 323.812134,240.834167 323.848602,240.015259 
	C324.815857,238.274612 326.443268,236.578506 326.564575,234.780807 
	C326.685699,232.985382 325.522736,230.926422 324.393829,229.365479 
	C324.153748,229.033493 321.093384,229.936981 320.270294,230.998505 
	C318.566040,233.196442 317.279785,235.795303 316.207184,238.388733 
	C314.483002,242.557663 314.549896,246.651794 318.466064,249.675430 
	C322.115234,252.492889 325.492615,250.386261 328.571655,248.411179 
	C331.994812,246.215363 335.183411,243.653870 338.774994,241.031921 
	C339.170593,246.032944 341.128571,250.022354 345.896179,249.368851 
	C349.543549,248.868927 352.864136,245.984955 356.336731,244.174591 
	C361.608826,250.498642 363.051880,250.522858 374.479584,244.478943 
	C376.943939,251.286621 378.764465,252.167786 385.349792,248.514175 
	C389.969696,245.950989 394.154480,242.603622 398.896149,239.913849 
M164.066223,240.829086 
	C163.745392,244.648972 163.905273,249.121155 168.099716,249.860565 
	C170.801910,250.336945 174.446732,248.104279 176.979935,246.179016 
	C179.656662,244.144699 181.515564,241.034286 184.506714,237.470612 
	C185.072403,240.039749 185.201904,240.670746 185.350830,241.297119 
	C186.191513,244.832870 187.502167,248.097763 191.543579,248.909454 
	C195.738251,249.751923 198.142532,246.946991 199.855057,243.847870 
	C202.816193,238.489197 205.481537,232.959778 208.097824,227.420212 
	C210.122986,223.132172 208.258377,220.589554 204.047516,219.108170 
	C200.865631,225.694595 197.797943,232.044617 194.730270,238.394638 
	C194.094894,238.153198 193.459503,237.911758 192.824127,237.670319 
	C193.191177,234.989349 194.049744,232.255219 193.767365,229.644501 
	C193.547531,227.612259 192.234253,225.376541 190.716034,223.985123 
	C190.201080,223.513199 187.266190,225.009232 185.974182,226.192413 
	C182.925888,228.983963 180.200439,232.128052 177.940872,234.502701 
	C176.629242,231.879776 175.567993,229.757553 174.506744,227.635330 
	C172.657700,228.910934 170.593124,229.968399 169.019730,231.522995 
	C167.420380,233.103241 166.305237,235.173584 164.759796,236.143814 
	C164.741959,233.646469 164.949127,231.122635 164.659073,228.657318 
	C164.071289,223.661713 160.859756,222.057953 156.778809,224.902313 
	C153.942474,226.879196 151.510101,229.451553 148.972366,231.837738 
	C143.369934,237.105576 136.549377,239.477997 127.949356,241.303635 
	C129.096054,237.211243 129.716629,234.178253 130.786118,231.312790 
	C137.589157,213.085831 144.471497,194.888336 151.380188,176.701065 
	C152.524216,173.689407 152.583481,170.859161 149.362091,169.457062 
	C145.576477,167.809357 145.395889,171.582428 144.634018,173.576736 
	C138.046616,190.820419 131.667694,208.143707 125.086876,225.389954 
	C124.375580,227.254028 123.140778,229.421341 121.520660,230.339020 
	C117.094337,232.846191 112.332123,234.760376 107.020645,237.226181 
	C108.253906,232.302567 106.488319,229.749863 102.028206,228.998718 
	C101.145126,228.849991 100.372398,227.971634 99.576599,227.391602 
	C95.541046,224.450134 91.431900,224.587509 87.589081,227.533936 
	C82.103470,231.739960 78.714012,237.480255 77.270134,244.141907 
	C76.902390,245.838608 77.959732,248.543549 79.299690,249.679718 
	C80.290604,250.519913 83.147835,250.149170 84.571075,249.303635 
	C88.840843,246.767136 92.815147,243.733292 97.091446,241.087219 
	C97.091446,241.087219 97.281204,241.277939 97.298698,242.029053 
	C95.969070,244.434052 95.049408,247.218414 93.237206,249.176880 
	C86.249229,256.728851 79.941925,264.808350 77.961037,275.033966 
	C76.961189,280.195343 77.892990,285.823242 78.585854,291.157776 
	C78.767738,292.558136 81.315933,293.651184 82.777451,294.885345 
	C83.782730,293.667969 85.141479,292.601746 85.737122,291.209167 
	C90.310493,280.516785 95.495506,270.002075 98.998566,258.958893 
	C102.692726,247.313248 112.535507,243.518356 121.351158,237.471497 
	C123.072845,242.752747 123.901855,248.493546 130.361221,247.732025 
	C135.002991,247.184814 139.455704,245.034058 143.943771,243.614120 
	C149.364059,252.796951 155.399643,253.248322 161.036682,245.024139 
	C162.139603,243.414993 163.035126,241.663681 164.066223,240.829086 
M268.040405,251.039261 
	C273.557465,228.948944 283.793304,209.429245 300.014618,193.313690 
	C303.180145,190.168808 307.195038,187.878799 310.818146,185.194489 
	C311.281433,185.569565 311.744690,185.944641 312.207947,186.319717 
	C311.542786,189.328903 311.224121,192.469391 310.143433,195.321075 
	C307.559601,202.139145 304.764771,208.888306 301.751221,215.527344 
	C300.418091,218.464264 301.145660,220.532974 303.640961,221.755905 
	C304.536102,222.194611 306.945221,221.355820 307.490082,220.418243 
	C313.133728,210.707031 317.325195,200.389587 318.424194,189.120758 
	C319.188965,181.279358 312.282013,176.594833 305.210907,180.090515 
	C302.125244,181.615952 299.254028,183.752457 296.637634,186.018158 
	C287.073273,194.300537 279.984009,204.570755 274.001831,215.585220 
	C267.711395,227.167252 262.305603,239.166763 261.170959,252.520981 
	C260.676941,258.335419 262.712189,263.415161 268.111572,266.440552 
	C273.363770,269.383453 278.393555,268.198730 283.142700,265.062561 
	C284.665497,264.056976 286.146973,262.962311 287.522156,261.764679 
	C291.860352,257.986603 296.139191,254.140381 300.580170,250.196945 
	C301.581635,255.650467 296.510437,262.639496 305.270416,265.665741 
	C305.723511,264.807983 306.251221,264.257233 306.286133,263.676819 
	C307.044189,251.083130 310.069397,239.127884 315.571136,227.719742 
	C316.169403,226.479141 314.046661,223.926285 313.186035,221.982101 
	C311.725220,222.904541 309.671783,223.479401 308.895447,224.803253 
	C301.229004,237.876205 291.704498,249.322647 279.395050,258.193848 
	C276.668213,260.158997 272.844513,260.602173 269.525879,261.746124 
	C268.997498,258.469788 268.469086,255.193466 268.040405,251.039261 
M416.681030,235.319321 
	C416.355743,235.898544 416.001556,236.463608 415.709808,237.059265 
	C413.723511,241.114624 412.506805,245.305649 415.806702,249.170731 
	C419.352814,253.324203 423.751587,251.964050 427.661926,249.917953 
	C434.705841,246.232178 441.569641,242.196213 448.443359,238.194382 
	C450.786072,236.830475 452.932495,235.129379 455.184540,233.571350 
	C453.246765,230.063507 451.615906,229.944855 448.770630,231.540817 
	C441.406647,235.671417 433.804047,239.383698 426.225037,243.117508 
	C424.842560,243.798584 423.121185,243.791748 421.556274,244.102478 
	C421.443451,243.675293 421.330627,243.248123 421.217834,242.820938 
	C422.920715,241.928543 424.645660,241.075333 426.320679,240.133331 
	C428.199890,239.076462 430.144531,238.087112 431.861725,236.802414 
	C434.431030,234.880234 437.062164,232.739227 435.018738,228.979401 
	C433.288055,225.795090 428.968384,224.653763 425.416687,227.030624 
	C422.317352,229.104736 419.840515,232.109055 416.681030,235.319321 
M368.196259,212.693375 
	C367.879608,213.459061 367.078827,214.506744 367.331635,214.940750 
	C368.330902,216.656357 369.660431,218.179596 370.867523,219.774170 
	C372.030121,218.827805 373.968445,218.026550 374.178833,216.902039 
	C374.519135,215.082687 374.299713,212.632950 373.267426,211.211197 
	C371.873047,209.290680 369.774078,209.590714 368.196259,212.693375 
z"/>
<path fill="#C4AE8E" opacity="1.000000" stroke="none" 
	d="
M96.904747,240.893509 
	C92.815147,243.733292 88.840843,246.767136 84.571075,249.303635 
	C83.147835,250.149170 80.290604,250.519913 79.299690,249.679718 
	C77.959732,248.543549 76.902390,245.838608 77.270134,244.141907 
	C78.714012,237.480255 82.103470,231.739960 87.589081,227.533936 
	C91.431900,224.587509 95.541046,224.450134 99.576599,227.391602 
	C100.372398,227.971634 101.145126,228.849991 102.028206,228.998718 
	C106.488319,229.749863 108.253906,232.302567 107.020645,237.226181 
	C112.332123,234.760376 117.094337,232.846191 121.520660,230.339020 
	C123.140778,229.421341 124.375580,227.254028 125.086876,225.389954 
	C131.667694,208.143707 138.046616,190.820419 144.634018,173.576736 
	C145.395889,171.582428 145.576477,167.809357 149.362091,169.457062 
	C152.583481,170.859161 152.524216,173.689407 151.380188,176.701065 
	C144.471497,194.888336 137.589157,213.085831 130.786118,231.312790 
	C129.716629,234.178253 129.096054,237.211243 127.949356,241.303635 
	C136.549377,239.477997 143.369934,237.105576 148.972366,231.837738 
	C151.510101,229.451553 153.942474,226.879196 156.778809,224.902313 
	C160.859756,222.057953 164.071289,223.661713 164.659073,228.657318 
	C164.949127,231.122635 164.741959,233.646469 164.879669,236.572327 
	C164.999557,237.000824 165.016663,236.969559 164.692184,237.112350 
	C164.238693,238.181946 164.109665,239.108765 163.991394,240.020630 
	C164.002136,240.005692 164.026337,239.977951 164.026337,239.977936 
	C163.035126,241.663681 162.139603,243.414993 161.036682,245.024139 
	C155.399643,253.248322 149.364059,252.796951 143.943771,243.614120 
	C139.455704,245.034058 135.002991,247.184814 130.361221,247.732025 
	C123.901855,248.493546 123.072845,242.752747 121.351158,237.471497 
	C112.535507,243.518356 102.692726,247.313248 98.998566,258.958893 
	C95.495506,270.002075 90.310493,280.516785 85.737122,291.209167 
	C85.141479,292.601746 83.782730,293.667969 82.777451,294.885345 
	C81.315933,293.651184 78.767738,292.558136 78.585854,291.157776 
	C77.892990,285.823242 76.961189,280.195343 77.961037,275.033966 
	C79.941925,264.808350 86.249229,256.728851 93.237206,249.176880 
	C95.049408,247.218414 95.969070,244.434052 97.452118,241.527649 
	C97.553185,240.796997 97.500832,240.567749 97.448479,240.338516 
	C97.267235,240.523514 97.085991,240.708511 96.904747,240.893509 
z"/>
<path fill="#C4AE8E" opacity="1.000000" stroke="none" 
	d="
M398.533600,239.606445 
	C394.154480,242.603622 389.969696,245.950989 385.349792,248.514175 
	C378.764465,252.167786 376.943939,251.286621 374.479584,244.478943 
	C363.051880,250.522858 361.608826,250.498642 356.333374,244.167999 
	C352.864136,245.984955 349.543549,248.868927 345.896179,249.368851 
	C341.128571,250.022354 339.170593,246.032944 338.774994,241.031921 
	C335.183411,243.653870 331.994812,246.215363 328.571655,248.411179 
	C325.492615,250.386261 322.115234,252.492889 318.466064,249.675430 
	C314.549896,246.651794 314.483002,242.557663 316.207184,238.388733 
	C317.279785,235.795303 318.566040,233.196442 320.270294,230.998505 
	C321.093384,229.936981 324.153748,229.033493 324.393829,229.365479 
	C325.522736,230.926422 326.685699,232.985382 326.564575,234.780807 
	C326.443268,236.578506 324.815857,238.274612 323.575439,240.565491 
	C323.296265,241.530685 323.290192,241.945648 323.284149,242.360626 
	C323.690643,242.058655 324.097168,241.756683 324.503662,241.454681 
	C329.749939,237.153061 334.896149,232.719040 340.304016,228.631210 
	C341.908539,227.418335 344.249176,227.179337 346.252533,226.494080 
	C346.861053,228.676559 347.979797,230.867218 347.945007,233.039413 
	C347.904327,235.580551 346.858276,238.105576 345.991791,241.702774 
	C351.376038,239.301056 355.527679,236.957428 358.320282,232.653534 
	C358.771454,231.958221 358.968384,231.050720 359.527344,230.481308 
	C361.320618,228.654495 361.094238,223.675735 365.621124,226.008133 
	C369.742462,228.131607 367.812561,231.176590 366.318970,234.083374 
	C365.292419,236.081161 364.533478,238.216476 363.146454,241.490555 
	C371.461334,239.165146 377.706482,235.690979 382.868500,230.540344 
	C387.417297,226.001572 392.036621,223.283035 399.040161,227.715820 
	C404.726105,218.907822 410.473877,210.402756 415.787384,201.634491 
	C419.402649,195.668625 422.279510,189.258469 425.790070,183.223526 
	C426.565643,181.890274 428.944641,180.248383 430.024078,180.579300 
	C432.662262,181.388031 433.791901,183.724854 432.402588,186.582458 
	C430.874359,189.725815 429.189056,192.797821 427.773865,195.990326 
	C419.423737,214.827271 411.167999,233.706253 402.746368,252.511002 
	C402.139862,253.865234 400.466553,254.741730 399.289276,255.840347 
	C398.185181,254.025620 396.045410,252.116974 396.199615,250.416367 
	C396.490967,247.203812 398.101440,244.110870 399.404053,240.401917 
	C399.652649,239.418716 399.660889,239.001801 399.669128,238.584885 
	C399.290619,238.925415 398.912109,239.265930 398.533600,239.606445 
z"/>
<path fill="#C4AE8E" opacity="1.000000" stroke="none" 
	d="
M267.990540,251.478195 
	C268.469086,255.193466 268.997498,258.469788 269.525879,261.746124 
	C272.844513,260.602173 276.668213,260.158997 279.395050,258.193848 
	C291.704498,249.322647 301.229004,237.876205 308.895447,224.803253 
	C309.671783,223.479401 311.725220,222.904541 313.186035,221.982101 
	C314.046661,223.926285 316.169403,226.479141 315.571136,227.719742 
	C310.069397,239.127884 307.044189,251.083130 306.286133,263.676819 
	C306.251221,264.257233 305.723511,264.807983 305.270416,265.665741 
	C296.510437,262.639496 301.581635,255.650467 300.580170,250.196945 
	C296.139191,254.140381 291.860352,257.986603 287.522156,261.764679 
	C286.146973,262.962311 284.665497,264.056976 283.142700,265.062561 
	C278.393555,268.198730 273.363770,269.383453 268.111572,266.440552 
	C262.712189,263.415161 260.676941,258.335419 261.170959,252.520981 
	C262.305603,239.166763 267.711395,227.167252 274.001831,215.585220 
	C279.984009,204.570755 287.073273,194.300537 296.637634,186.018158 
	C299.254028,183.752457 302.125244,181.615952 305.210907,180.090515 
	C312.282013,176.594833 319.188965,181.279358 318.424194,189.120758 
	C317.325195,200.389587 313.133728,210.707031 307.490082,220.418243 
	C306.945221,221.355820 304.536102,222.194611 303.640961,221.755905 
	C301.145660,220.532974 300.418091,218.464264 301.751221,215.527344 
	C304.764771,208.888306 307.559601,202.139145 310.143433,195.321075 
	C311.224121,192.469391 311.542786,189.328903 312.207947,186.319717 
	C311.744690,185.944641 311.281433,185.569565 310.818146,185.194489 
	C307.195038,187.878799 303.180145,190.168808 300.014618,193.313690 
	C283.793304,209.429245 273.557465,228.948944 267.990540,251.478195 
z"/>
<path fill="#C4AE8E" opacity="1.000000" stroke="none" 
	d="
M164.988800,237.015060 
	C166.305237,235.173584 167.420380,233.103241 169.019730,231.522995 
	C170.593124,229.968399 172.657700,228.910934 174.506744,227.635330 
	C175.567993,229.757553 176.629242,231.879776 177.940872,234.502701 
	C180.200439,232.128052 182.925888,228.983963 185.974182,226.192413 
	C187.266190,225.009232 190.201080,223.513199 190.716034,223.985123 
	C192.234253,225.376541 193.547531,227.612259 193.767365,229.644501 
	C194.049744,232.255219 193.191177,234.989349 192.824127,237.670319 
	C193.459503,237.911758 194.094894,238.153198 194.730270,238.394638 
	C197.797943,232.044617 200.865631,225.694595 204.047516,219.108170 
	C208.258377,220.589554 210.122986,223.132172 208.097824,227.420212 
	C205.481537,232.959778 202.816193,238.489197 199.855057,243.847870 
	C198.142532,246.946991 195.738251,249.751923 191.543579,248.909454 
	C187.502167,248.097763 186.191513,244.832870 185.350830,241.297119 
	C185.201904,240.670746 185.072403,240.039749 184.506714,237.470612 
	C181.515564,241.034286 179.656662,244.144699 176.979935,246.179016 
	C174.446732,248.104279 170.801910,250.336945 168.099716,249.860565 
	C163.905273,249.121155 163.745392,244.648972 164.046280,240.403519 
	C164.026337,239.977951 164.002136,240.005692 164.290054,239.840042 
	C164.724213,238.772781 164.870438,237.871170 165.016663,236.969559 
	C165.016663,236.969559 164.999557,237.000824 164.988800,237.015060 
z"/>
<path fill="#C4AE8E" opacity="1.000000" stroke="none" 
	d="
M416.884827,235.010864 
	C419.840515,232.109055 422.317352,229.104736 425.416687,227.030624 
	C428.968384,224.653763 433.288055,225.795090 435.018738,228.979401 
	C437.062164,232.739227 434.431030,234.880234 431.861725,236.802414 
	C430.144531,238.087112 428.199890,239.076462 426.320679,240.133331 
	C424.645660,241.075333 422.920715,241.928543 421.217834,242.820938 
	C421.330627,243.248123 421.443451,243.675293 421.556274,244.102478 
	C423.121185,243.791748 424.842560,243.798584 426.225037,243.117508 
	C433.804047,239.383698 441.406647,235.671417 448.770630,231.540817 
	C451.615906,229.944855 453.246765,230.063507 455.184540,233.571350 
	C452.932495,235.129379 450.786072,236.830475 448.443359,238.194382 
	C441.569641,242.196213 434.705841,246.232178 427.661926,249.917953 
	C423.751587,251.964050 419.352814,253.324203 415.806702,249.170731 
	C412.506805,245.305649 413.723511,241.114624 415.709808,237.059265 
	C416.001556,236.463608 416.355743,235.898544 416.884827,235.010864 
z"/>
<path fill="#C6B091" opacity="1.000000" stroke="none" 
	d="
M368.385376,212.366455 
	C369.774078,209.590714 371.873047,209.290680 373.267426,211.211197 
	C374.299713,212.632950 374.519135,215.082687 374.178833,216.902039 
	C373.968445,218.026550 372.030121,218.827805 370.867493,219.774170 
	C369.660431,218.179596 368.330902,216.656357 367.331635,214.940750 
	C367.078827,214.506744 367.879608,213.459061 368.385376,212.366455 
z"/>
<path fill="#FFFFFF" opacity="1.000000" stroke="none" 
	d="
M164.692184,237.112350 
	C164.870438,237.871170 164.724213,238.772781 164.279312,239.854980 
	C164.109665,239.108765 164.238693,238.181946 164.692184,237.112350 
z"/>
<path fill="#FFFFFF" opacity="1.000000" stroke="none" 
	d="
M96.998093,240.990356 
	C97.085991,240.708511 97.267235,240.523514 97.448479,240.338516 
	C97.500832,240.567749 97.553185,240.796997 97.443375,241.152084 
	C97.281204,241.277939 97.091446,241.087219 96.998093,240.990356 
z"/>
<path fill="#FFFFFF" opacity="1.000000" stroke="none" 
	d="
M398.714874,239.760147 
	C398.912109,239.265930 399.290619,238.925415 399.669128,238.584885 
	C399.660889,239.001801 399.652649,239.418716 399.451416,240.028625 
	C399.258423,240.221619 398.896149,239.913849 398.714874,239.760147 
z"/>
<path fill="#FFFFFF" opacity="1.000000" stroke="none" 
	d="
M324.298279,241.266235 
	C324.097168,241.756683 323.690643,242.058655 323.284149,242.360626 
	C323.290192,241.945648 323.296265,241.530685 323.487030,240.914032 
	C323.812134,240.834167 323.952515,240.955963 324.298279,241.266235 
z"/>
</svg>